<svg width="138" height="52" viewBox="0 0 138 52" fill="none" xmlns="http://www.w3.org/2000/svg">
<g clip-path="url(#clip0)">
<path d="M27.5349 16.25H23.9238V19.5H27.5349V16.25Z" fill="#211D70"/>
<path d="M46.9446 16.25H43.3335V19.5H46.9446V16.25Z" fill="#211D70"/>
<path d="M16.7014 14.625V16.3403H13.3611H7.3125C6.77083 16.3403 6.22917 16.4306 5.77778 16.7014C5.32639 16.8819 4.875 17.1528 4.51389 17.5139C4.15278 17.875 3.88194 18.3264 3.70139 18.7778C3.52083 19.2292 3.34028 19.7708 3.34028 20.3125C3.34028 20.8542 3.43056 21.3958 3.70139 21.8472C3.88194 22.2986 4.15278 22.75 4.51389 23.1111C4.875 23.4722 5.32639 23.7431 5.77778 24.0139C6.22917 24.1944 6.77083 24.375 7.3125 24.375H13C13.9931 24.375 14.8958 24.5556 15.7986 24.9167C16.7014 25.2778 17.4236 25.8194 18.1458 26.4514C18.7778 27.0833 19.3194 27.8958 19.6806 28.7986C20.0417 29.7014 20.2222 30.6042 20.2222 31.6875C20.2222 32.6806 20.0417 33.6736 19.6806 34.5764C19.3194 35.4792 18.7778 36.2014 18.0556 36.9236C17.4236 37.5556 16.6111 38.0972 15.7083 38.5486C14.8056 38.9097 13.9028 39.0903 12.9097 39.0903H0V35.75H13C13.5417 35.75 14.0833 35.6597 14.5347 35.3889C14.9861 35.2083 15.4375 34.9375 15.7986 34.5764C16.1597 34.2153 16.4306 33.7639 16.6111 33.3125C16.7917 32.8611 16.8819 32.3194 16.8819 31.7778C16.8819 31.2361 16.7917 30.6944 16.6111 30.2431C16.4306 29.7917 16.0694 29.3403 15.7986 28.9792C15.4375 28.6181 14.9861 28.3472 14.5347 28.1667C14.0833 27.9861 13.5417 27.8056 13 27.8056H7.3125C6.31944 27.8056 5.32639 27.625 4.42361 27.1736C3.52083 26.8125 2.79861 26.2708 2.07639 25.5486C1.44444 24.9167 0.902778 24.1042 0.541667 23.2014C0.180556 22.2986 0 21.3958 0 20.3125C0 19.3194 0.180556 18.3264 0.541667 17.4236C0.902778 16.5208 1.44444 15.7986 2.07639 15.0764C2.79861 14.4444 3.61111 13.9931 4.42361 13.5417C5.32639 13.1806 6.22917 13 7.3125 13H16.7014V14.625Z" fill="#211D70"/>
<path d="M23.9238 22.75H25.7294H27.5349V39H23.9238V26.3611V22.75Z" fill="#211D70"/>
<path d="M35.2988 32.2292C35.5696 32.7708 35.9307 33.3125 36.2918 33.7639C36.7432 34.2153 37.1946 34.5764 37.8266 34.7569C38.3682 35.0278 39.0002 35.1181 39.7224 35.1181V38.9097C38.5488 38.9097 37.4654 38.6389 36.3821 38.1875C35.2988 37.7361 34.396 37.1042 33.6738 36.3819C32.8613 35.5694 32.3196 34.6667 31.8682 33.6736C31.4168 32.5903 31.146 31.5069 31.146 30.3333V13.9931V13H33.0418H34.9377V30.4236C34.9377 31.0556 35.1182 31.6875 35.2988 32.2292Z" fill="#211D70"/>
<path d="M43.4238 22.75H45.2294H47.0349V39H43.4238V26.3611V22.75Z" fill="#211D70"/>
<path d="M65.271 26.2704H63.4655H62.3822H58.8613C58.2294 26.2704 57.5974 26.3607 57.0558 26.6315C56.5141 26.9023 55.9724 27.1732 55.6113 27.6246C55.1599 28.076 54.8891 28.5273 54.6183 29.069C54.3474 29.6107 54.2572 30.2426 54.2572 30.8746C54.2572 31.5065 54.3474 32.1385 54.6183 32.6801C54.8891 33.2218 55.1599 33.7635 55.6113 34.1246C56.0627 34.576 56.5141 34.8468 57.0558 35.1176C57.5974 35.3885 58.2294 35.4787 58.8613 35.4787H62.3822H63.4655H65.271V39.0898H63.4655H58.8613C57.778 39.0898 56.6947 38.9093 55.7016 38.4579C54.7085 38.0065 53.8058 37.4648 53.0835 36.7426C52.3613 36.0204 51.7294 35.1176 51.3683 34.1246C50.9169 33.1315 50.7363 32.0482 50.7363 30.9648C50.7363 29.8815 50.9169 28.7982 51.3683 27.8051C51.8197 26.8121 52.3613 25.9093 53.0835 25.1871C53.8058 24.4648 54.7085 23.8329 55.7016 23.4718C56.6947 23.0204 57.778 22.8398 58.8613 22.8398H63.4655H65.271V26.2704Z" fill="#211D70"/>
<path d="M77.4582 22.208C78.6318 22.208 79.7152 22.4788 80.7985 22.9302C81.7916 23.3816 82.6943 24.0136 83.5068 24.8261C84.3193 25.6386 84.9513 26.5413 85.4027 27.5344C85.8541 28.6177 86.1249 29.7011 86.1249 30.8747C86.1249 32.0483 85.8541 33.1316 85.4027 34.215C84.9513 35.2983 84.3193 36.2011 83.5068 36.9233C82.6943 37.7358 81.7916 38.3677 80.7985 38.8191C79.8054 39.2705 78.6318 39.5413 77.4582 39.5413C76.2846 39.5413 75.111 39.2705 74.1179 38.8191C73.0346 38.3677 72.1318 37.7358 71.4096 36.9233C70.5971 36.1108 70.0554 35.208 69.6041 34.215C69.1527 33.1316 68.8818 32.0483 68.8818 30.8747C68.8818 29.7011 69.1527 28.6177 69.6041 27.5344C70.0554 26.4511 70.6874 25.5483 71.4096 24.8261C72.2221 24.0136 73.1249 23.3816 74.1179 22.9302C75.111 22.3886 76.2846 22.208 77.4582 22.208ZM77.4582 35.5691C78.0902 35.5691 78.7221 35.4788 79.3541 35.208C79.8957 34.9372 80.4374 34.5761 80.8888 34.215C81.3402 33.7636 81.7013 33.3122 81.8818 32.6802C82.1527 32.0483 82.2429 31.5066 82.2429 30.7844C82.2429 30.1524 82.1527 29.5205 81.8818 28.9788C81.611 28.4372 81.2499 27.8955 80.8888 27.4441C80.4374 26.9927 79.986 26.6316 79.3541 26.4511C78.8124 26.1802 78.1804 26.09 77.4582 26.09C76.8263 26.09 76.1943 26.1802 75.5624 26.4511C74.9304 26.7219 74.4791 27.083 74.0277 27.4441C73.5763 27.8955 73.2152 28.3469 73.0346 28.9788C72.7638 29.5205 72.6735 30.1524 72.6735 30.7844C72.6735 31.4163 72.7638 32.0483 73.0346 32.6802C73.3054 33.3122 73.6666 33.7636 74.0277 34.215C74.4791 34.6663 75.0207 34.9372 75.5624 35.208C76.1943 35.4788 76.8263 35.5691 77.4582 35.5691Z" fill="#211D70"/>
<path d="M98.1321 22.5693C99.3057 22.5693 100.389 22.7499 101.472 23.2013C102.465 23.6527 103.368 24.2846 104.181 25.0068C104.993 25.8193 105.535 26.6318 105.986 27.7152C106.438 28.7082 106.618 29.8818 106.618 31.0554V35.7499V38.9096H102.917V35.7499V34.6666V31.0554C102.917 30.4235 102.827 29.7916 102.556 29.1596C102.285 28.6179 102.014 28.0763 101.563 27.6249C101.111 27.1735 100.66 26.9027 100.028 26.6318C99.4863 26.361 98.8543 26.2707 98.1321 26.2707C97.5002 26.2707 96.8682 26.361 96.3265 26.6318C95.7849 26.9027 95.2432 27.1735 94.7918 27.6249C94.3404 28.0763 93.9793 28.5277 93.7988 29.1596C93.5279 29.7013 93.4377 30.3332 93.4377 31.0554V34.6666V35.7499V38.9096H89.646V35.7499V31.0554V26.361V22.5693H91.6321H93.5279V24.0138C94.2502 23.5624 94.9724 23.2013 95.7849 22.9304C96.4168 22.7499 97.2293 22.5693 98.1321 22.5693Z" fill="#211D70"/>
<path d="M113.119 0C113.119 0 131.084 10.0208 133.251 11.2847C135.508 12.5486 136.321 13.8125 136.862 14.8958C137.404 15.9792 138.126 18.3264 136.772 21.3958C136.772 21.3958 137.314 19.1389 136.682 17.5139C136.14 16.1597 135.327 14.9861 133.793 14.1736C132.258 13.2708 115.286 3.88194 115.286 3.88194V11.7361L128.737 19.2292C129.64 19.7708 129.73 21.0347 128.918 21.6667L121.605 27.1736L120.522 26.5417C119.98 26.2708 119.98 25.5486 120.432 25.1875L126.48 20.5833L113.119 13.0903V0Z" fill="#00ABCC"/>
<path d="M117.361 7.49316V10.1112L131.084 17.7848C132.799 18.7779 132.979 21.2154 131.445 22.4793L123.771 28.257L125.938 29.4307C125.938 29.4307 130.632 25.8196 132.979 24.1043C134.514 22.9307 134.875 20.9446 134.785 19.7709C134.695 18.8682 134.514 17.0626 131.535 15.4376C127.924 13.4515 117.361 7.49316 117.361 7.49316Z" fill="#00ABCC"/>
<path d="M137.583 52V38.7292C137.583 38.7292 121.965 30.0625 119.528 28.6181C117.541 27.5347 117.451 26.3611 117.451 25.9097C117.451 25.3681 117.632 24.4653 118.805 23.5625C120.16 22.5695 122.507 20.7639 122.507 20.7639L121.243 20.0417C120.701 19.7709 120.069 19.7709 119.528 20.132C118.896 20.5834 118.083 21.2153 117.451 21.6667C116.368 22.4792 115.375 23.7431 115.375 25.8195C115.375 27.9861 116.548 29.4306 118.354 30.5139C119.166 31.0556 135.507 40.0834 135.507 40.0834V48.0278C135.507 48.0278 118.625 38.6389 116.368 37.375C114.111 36.1111 113.479 34.3056 113.298 32.6806C113.298 32.6806 112.937 35.6597 114.382 37.7361C115.736 39.5417 116.639 40.0834 118.805 41.3472C120.791 42.6111 137.583 52 137.583 52Z" fill="#00ABCC"/>
<path d="M133.34 44.3264V41.7083C133.34 41.7083 119.618 34.0347 117 32.5903C114.472 31.1458 113.118 29.0694 113.569 26C113.569 26 112.667 28.7083 113.389 31.0556C114.111 33.3125 115.375 34.3958 116.91 35.2083C118.444 36.0208 133.34 44.3264 133.34 44.3264Z" fill="#00ABCC"/>
</g>
<defs>
<clipPath id="clip0">
<rect width="137.583" height="52" fill="white"/>
</clipPath>
</defs>
</svg>
